<svg width="22" height="22" viewBox="0 0 22 22" fill="none" xmlns="http://www.w3.org/2000/svg">
<path d="M4.125 18.5C4.60539 17.962 6.85526 15.4861 7.51459 15.4861H14.4858C15.4413 15.4861 17.3916 17.5384 17.875 18.2619M21 11C21 16.5228 16.5228 21 11 21C5.47715 21 1 16.5228 1 11C1 5.47715 5.47715 1 11 1C16.5228 1 21 5.47715 21 11ZM14.5821 7.59162C14.5821 5.6838 12.9716 4.125 11.0003 4.125C9.02908 4.125 7.41848 5.6838 7.41848 7.59162C7.41848 9.49945 9.02908 11.0582 11.0003 11.0582C12.9715 11.0582 14.5821 9.49945 14.5821 7.59162Z" stroke="white" stroke-width="2"/>
</svg>
