<svg width="23" height="31" viewBox="0 0 23 31" fill="none" xmlns="http://www.w3.org/2000/svg">
<path d="M4.01877 10.8333V9.5C4.01877 5.06825 7.31006 1.5 11.3978 1.5C15.4856 1.5 18.7769 5.06825 18.7769 9.5V10.8333M4.01877 10.8333C2.66594 10.8333 1.55908 12.0333 1.55908 13.5V26.8333C1.55908 28.3 2.66594 29.5 4.01877 29.5H18.7769C20.1297 29.5 21.2365 28.3 21.2365 26.8333V13.5C21.2365 12.0333 20.1297 10.8333 18.7769 10.8333M4.01877 10.8333H18.7769M11.3978 17.5C12.7506 17.5 13.8575 18.7 13.8575 20.1667C13.8575 21.6333 12.7506 22.8333 11.3978 22.8333C10.045 22.8333 8.93813 21.6333 8.93813 20.1667C8.93813 18.7 10.045 17.5 11.3978 17.5Z" stroke="white" stroke-width="2"/>
</svg>
