<svg width="27" height="27" viewBox="0 0 27 27" fill="none" xmlns="http://www.w3.org/2000/svg">
<path d="M14.6342 6.11189C16.1966 6.37373 17.6158 7.11165 18.7488 8.24234C19.8818 9.37302 20.6153 10.7893 20.8836 12.3485M14.8728 1C17.6516 1.47013 20.1859 2.78529 22.2015 4.79076C24.217 6.80219 25.5289 9.33135 26 12.1045M23.8294 23.1376C23.8294 23.1376 22.3207 24.6194 21.951 25.0538C21.3487 25.6965 20.6391 26 19.7088 26C19.6194 26 19.524 26 19.4345 25.994C17.6635 25.881 16.0176 25.1907 14.7833 24.6015C11.4081 22.971 8.44445 20.656 5.98167 17.7222C3.94823 15.2764 2.58864 13.015 1.6882 10.587C1.13363 9.10521 0.93088 7.95072 1.02033 6.8617C1.07996 6.16543 1.3483 5.58819 1.84324 5.09426L3.87667 3.06498C4.16887 2.79124 4.47895 2.64246 4.78307 2.64246C5.15875 2.64246 5.46287 2.8686 5.65369 3.05903C5.65966 3.06498 5.66562 3.07093 5.67158 3.07688C6.03533 3.41609 6.3812 3.7672 6.74495 4.14211C6.92981 4.33254 7.12063 4.52297 7.31145 4.71935L8.93939 6.34396C9.57148 6.97477 9.57148 7.55796 8.93939 8.18876C8.76646 8.36134 8.59949 8.53392 8.42656 8.70054C7.92565 9.21233 8.31914 8.81964 7.80035 9.28382C7.78842 9.29572 7.77649 9.30167 7.77053 9.31357C7.2577 9.82535 7.35311 10.3252 7.46045 10.6644C7.46641 10.6823 7.47237 10.7001 7.47834 10.718C7.90172 11.7416 8.49804 12.7056 9.40443 13.8542L9.4104 13.8601C11.0562 15.8834 12.7915 17.4604 14.7057 18.6685C14.9502 18.8232 15.2006 18.9482 15.4391 19.0672C15.6538 19.1743 15.8566 19.2755 16.0295 19.3826C16.0533 19.3945 16.0772 19.4124 16.101 19.4243C16.3038 19.5254 16.4946 19.573 16.6914 19.573C17.1863 19.573 17.4964 19.2636 17.5978 19.1624L18.7667 17.9959C18.9694 17.7936 19.2914 17.5496 19.6671 17.5496C20.0368 17.5496 20.3409 17.7817 20.5258 17.984C20.5317 17.99 20.5317 17.99 20.5377 17.9959L23.8234 21.2749C24.4376 21.8819 23.8294 23.1376 23.8294 23.1376Z" stroke="white" stroke-width="2" stroke-linecap="round" stroke-linejoin="round"/>
</svg>
