<svg width="57" height="57" viewBox="0 0 57 57" fill="none" xmlns="http://www.w3.org/2000/svg">
<path d="M54.6333 0.262207H2.1333C1.0983 0.262207 0.258301 1.10221 0.258301 2.13721V54.6372C0.258301 55.6722 1.0983 56.5122 2.1333 56.5122H54.6333C55.6683 56.5122 56.5083 55.6722 56.5083 54.6372V2.13721C56.5083 1.10221 55.6683 0.262207 54.6333 0.262207ZM52.7583 52.7622H4.0083V4.01221H52.7583V52.7622Z" fill="black"/>
<path d="M22.0629 39.131C22.4229 39.4685 22.8841 39.6373 23.3435 39.6373C23.8029 39.6373 24.2641 39.4685 24.6241 39.131L44.6641 20.381C45.4198 19.6742 45.4591 18.4873 44.7523 17.7317C44.0454 16.9742 42.8585 16.9348 42.1029 17.6435L23.3454 35.1935L14.666 27.071C13.9123 26.3642 12.7254 26.4035 12.0166 27.1592C11.3098 27.9148 11.3491 29.1017 12.1048 29.8085L22.0629 39.131Z" fill="black"/>
</svg>
