<svg width="48" height="46" viewBox="0 0 48 46" fill="none" xmlns="http://www.w3.org/2000/svg">
<g clip-path="url(#clip0_333_121)">
<path d="M24 11.1855C17.1938 11.1855 11.6719 16.4773 11.6719 23C11.6719 29.5227 17.1938 34.8145 24 34.8145C30.8062 34.8145 36.3281 29.5227 36.3281 23C36.3281 16.4773 30.8062 11.1855 24 11.1855ZM24 30.6637C19.5844 30.6637 16.0031 27.2316 16.0031 23C16.0031 18.7684 19.5844 15.3363 24 15.3363C28.4156 15.3363 31.9969 18.7684 31.9969 23C31.9969 27.2316 28.4156 30.6637 24 30.6637Z" fill="#FF7070"/>
<path d="M39.6937 10.7184C39.6937 12.2458 38.4 13.4766 36.8156 13.4766C35.2219 13.4766 33.9375 12.2368 33.9375 10.7184C33.9375 9.19107 35.2313 7.96021 36.8156 7.96021C38.4 7.96021 39.6937 9.20005 39.6937 10.7184Z" fill="#FF7070"/>
<path d="M24 4.1418C30.4125 4.1418 31.1719 4.16875 33.6938 4.27656C36.0375 4.37539 37.3031 4.75273 38.1469 5.06719C39.2625 5.48047 40.0688 5.98359 40.9031 6.7832C41.7469 7.5918 42.2625 8.35547 42.6938 9.42461C43.0219 10.2332 43.4156 11.4551 43.5188 13.6922C43.6313 16.118 43.6594 16.8457 43.6594 22.982C43.6594 29.1273 43.6313 29.8551 43.5188 32.2719C43.4156 34.518 43.0219 35.7309 42.6938 36.5395C42.2625 37.6086 41.7375 38.3813 40.9031 39.1809C40.0594 39.9895 39.2625 40.4836 38.1469 40.8969C37.3031 41.2113 36.0281 41.5887 33.6938 41.6875C31.1625 41.7953 30.4031 41.8223 24 41.8223C17.5875 41.8223 16.8281 41.7953 14.3063 41.6875C11.9625 41.5887 10.6969 41.2113 9.85313 40.8969C8.7375 40.4836 7.93125 39.9805 7.09688 39.1809C6.25313 38.3723 5.7375 37.6086 5.30625 36.5395C4.97813 35.7309 4.58438 34.509 4.48125 32.2719C4.36875 29.8461 4.34063 29.1184 4.34063 22.982C4.34063 16.8367 4.36875 16.109 4.48125 13.6922C4.58438 11.4461 4.97813 10.2332 5.30625 9.42461C5.7375 8.35547 6.2625 7.58281 7.09688 6.7832C7.94063 5.97461 8.7375 5.48047 9.85313 5.06719C10.6969 4.75273 11.9719 4.37539 14.3063 4.27656C16.8281 4.16875 17.5875 4.1418 24 4.1418ZM24 0C17.4844 0 16.6688 0.0269531 14.1094 0.134766C11.5594 0.242578 9.80625 0.63789 8.2875 1.20391C6.70313 1.79687 5.3625 2.57852 4.03125 3.86328C2.69063 5.13906 1.875 6.42383 1.25625 7.9332C0.665625 9.39766 0.253125 11.0687 0.140625 13.5125C0.028125 15.9742 0 16.7559 0 23C0 29.2441 0.028125 30.0258 0.140625 32.4785C0.253125 34.9223 0.665625 36.6023 1.25625 38.0578C1.875 39.5762 2.69063 40.8609 4.03125 42.1367C5.3625 43.4125 6.70313 44.2031 8.27813 44.7871C9.80625 45.3531 11.55 45.7484 14.1 45.8562C16.6594 45.9641 17.475 45.991 23.9906 45.991C30.5063 45.991 31.3219 45.9641 33.8813 45.8562C36.4313 45.7484 38.1844 45.3531 39.7031 44.7871C41.2781 44.2031 42.6188 43.4125 43.95 42.1367C45.2813 40.8609 46.1063 39.5762 46.7156 38.0668C47.3063 36.6023 47.7188 34.9313 47.8313 32.4875C47.9438 30.0348 47.9719 29.2531 47.9719 23.009C47.9719 16.7648 47.9438 15.9832 47.8313 13.5305C47.7188 11.0867 47.3063 9.40664 46.7156 7.95117C46.125 6.42383 45.3094 5.13906 43.9688 3.86328C42.6375 2.5875 41.2969 1.79687 39.7219 1.21289C38.1938 0.646875 36.45 0.251563 33.9 0.14375C31.3313 0.0269531 30.5156 0 24 0Z" fill="#FF7070"/>
</g>
<defs>
<clipPath id="clip0_333_121">
<rect width="48" height="46" fill="white"/>
</clipPath>
</defs>
</svg>
