<svg width="47" height="47" viewBox="0 0 47 47" fill="none" xmlns="http://www.w3.org/2000/svg">
<path d="M3.67107 9.16667L38.5077 42.7516M3.67107 9.16667C4.96721 7.70543 6.90313 6.77778 9.06601 6.77778H20.8427M3.67107 9.16667C2.62861 10.3419 2 11.8623 2 13.5229V38.2549C2 41.9801 5.16356 45 9.06601 45H34.9747C38.8772 45 42.0407 41.9801 42.0407 38.2549V28.1373M20.8427 28.1373L5.53301 42.7516M37.5362 9.64444V9.50074M45 9.64444C45 14.63 37.5362 21.1111 37.5362 21.1111C37.5362 21.1111 29.528 14.4638 29.528 9.47826C29.528 5.34813 33.1134 2 37.5362 2C41.9589 2 45 5.51431 45 9.64444Z" stroke="#0487D9" stroke-width="3" stroke-linecap="round" stroke-linejoin="round"/>
</svg>
