<svg width="48" height="46" viewBox="0 0 48 46" fill="none" xmlns="http://www.w3.org/2000/svg">
<path d="M0 46L3.3901 34.1876C1.29817 30.7299 0.198945 26.8103 0.200955 22.7911C0.206983 10.2254 10.9279 0 24.1005 0C30.4928 0.00191667 36.4933 2.37667 41.0068 6.68533C45.5182 10.994 48.002 16.721 48 22.8122C47.994 35.3797 37.273 45.6052 24.1005 45.6052C20.1015 45.6032 16.1608 44.6468 12.6702 42.8298L0 46ZM13.257 38.7033C16.625 40.6103 19.8402 41.7527 24.0924 41.7546C35.0404 41.7546 43.9588 33.2561 43.9648 22.8083C43.9688 12.3395 35.0927 3.8525 24.1085 3.84867C13.1525 3.84867 4.24014 12.3472 4.23612 22.793C4.23411 27.0576 5.54433 30.2507 7.74479 33.5915L5.73725 40.5835L13.257 38.7033ZM36.1397 28.2306C35.991 27.9929 35.5931 27.8511 34.9942 27.5655C34.3974 27.2799 31.4614 25.9018 30.9128 25.7121C30.3662 25.5223 29.9683 25.4265 29.5684 25.9977C29.1706 26.5669 28.0251 27.8511 27.6775 28.2306C27.3298 28.6101 26.9802 28.658 26.3833 28.3724C25.7865 28.0868 23.8613 27.4869 21.5805 25.5453C19.8061 24.035 18.6064 22.1701 18.2587 21.5989C17.9111 21.0297 18.2226 20.7211 18.52 20.4374C18.7892 20.1825 19.1168 19.7723 19.4162 19.4388C19.7197 19.1092 19.8181 18.8715 20.0191 18.4901C20.218 18.1106 20.1196 17.7771 19.9688 17.4915C19.8181 17.2078 18.6245 14.4037 18.1281 13.2633C17.6418 12.1536 17.1495 12.3031 16.7837 12.2858L15.6383 12.2667C15.2404 12.2667 14.5933 12.4085 14.0467 12.9797C13.5001 13.5508 11.9568 14.927 11.9568 17.7311C11.9568 20.5352 14.097 23.2434 14.3944 23.6229C14.6938 24.0024 18.6044 29.7563 24.5948 32.223C26.0196 32.8095 27.1329 33.1602 27.999 33.4228C29.4298 33.856 30.732 33.7947 31.7609 33.649C32.9083 33.4861 35.2936 32.2709 35.792 30.9407C36.2904 29.6087 36.2904 28.4683 36.1397 28.2306Z" fill="#25D366"/>
</svg>
